<?xml version="1.0" encoding="UTF-8" standalone="no"?>
<svg width="264.583mm" height="133.35mm"
 xmlns="http://www.w3.org/2000/svg" xmlns:xlink="http://www.w3.org/1999/xlink"  version="1.2" baseProfile="tiny">
<desc>Created by HiQPdf</desc>
<defs>
</defs>
<g fill="none" stroke="black" stroke-width="1" fill-rule="evenodd" stroke-linecap="square" stroke-linejoin="bevel" >

<g fill="#000000" fill-opacity="1" stroke="#000000" stroke-opacity="1" stroke-width="1" stroke-linecap="square" stroke-linejoin="miter" stroke-miterlimit="2" transform="matrix(1,0,0,1,0,0)"
>
</g>

<g fill="#000000" fill-opacity="1" stroke="#000000" stroke-opacity="1" stroke-width="1" stroke-linecap="square" stroke-linejoin="miter" stroke-miterlimit="2" transform="matrix(1,0,0,1,0,0)"
>
</g>

<g fill="#000000" fill-opacity="1" stroke="#000000" stroke-opacity="1" stroke-width="1" stroke-linecap="square" stroke-linejoin="miter" stroke-miterlimit="2" transform="matrix(1,0,0,1,0,0)"
>
</g>

<g fill="#fffcf0" fill-opacity="1" stroke="none" transform="matrix(1,0,0,1,0,0)"
>
<path vector-effect="none" fill-rule="evenodd" d="M0,0 L1000,0 L1000,504 L0,504 L0,0"/>
</g>

<g fill="#9a9a9a" fill-opacity="1" stroke="none" transform="matrix(1,0,0,1,0,0)"
>
<path vector-effect="none" fill-rule="evenodd" d="M8,456 L992,456 L992,457 L8,457 L8,456"/>
</g>

<g fill="#eeeeee" fill-opacity="1" stroke="none" transform="matrix(1,0,0,1,0,0)"
>
<path vector-effect="none" fill-rule="evenodd" d="M8,457 L992,457 L992,458 L8,458 L8,457"/>
</g>

<g fill="#9a9a9a" fill-opacity="1" stroke="none" transform="matrix(1,0,0,1,0,0)"
>
<path vector-effect="none" fill-rule="evenodd" d="M8,456 L8,458 L9,457 L9,456 L8,456"/>
</g>

<g fill="#eeeeee" fill-opacity="1" stroke="none" transform="matrix(1,0,0,1,0,0)"
>
<path vector-effect="none" fill-rule="evenodd" d="M991,457 L991,458 L992,458 L992,456 L991,457"/>
</g>

<g fill="#0f0c00" fill-opacity="1" stroke="#0f0c00" stroke-opacity="1" stroke-width="1" stroke-linecap="square" stroke-linejoin="bevel" transform="matrix(1,0,0,1,0,0)"
>
<text fill="#0f0c00" fill-opacity="1" stroke="none" xml:space="preserve" x="8" y="36" font-family="Verdana" font-size="14" font-weight="700" font-style="normal" 
 >DESCRIBE:</text>
</g>

<g fill="#0f0c00" fill-opacity="1" stroke="#000000" stroke-opacity="1" stroke-width="1" stroke-linecap="square" stroke-linejoin="miter" stroke-miterlimit="2" transform="matrix(1,0,0,1,0,0)"
>
</g>

<g fill="#0f0c00" fill-opacity="1" stroke="#000000" stroke-opacity="1" stroke-width="1" stroke-linecap="square" stroke-linejoin="miter" stroke-miterlimit="2" transform="matrix(1,0,0,1,0,0)"
>
</g>

<g fill="#0f0c00" fill-opacity="1" stroke="#000000" stroke-opacity="1" stroke-width="1" stroke-linecap="square" stroke-linejoin="miter" stroke-miterlimit="2" transform="matrix(1,0,0,1,8,53)"
>
</g>

<g fill="#332900" fill-opacity="1" stroke="none" transform="matrix(1,0,0,1,8,53)"
>
<path vector-effect="none" fill-rule="nonzero" d="M9,17 L1,13 L1,21 L9,17"/>
</g>

<g fill="none" stroke="#332900" stroke-opacity="1" stroke-width="1" stroke-linecap="butt" stroke-linejoin="miter" stroke-miterlimit="4" transform="matrix(1,0,0,1,8,53)"
>
<path vector-effect="none" fill-rule="nonzero" d="M9,17 L1,13 L1,21 L9,17"/>
</g>

<g fill="#0f0c00" fill-opacity="1" stroke="#000000" stroke-opacity="1" stroke-width="1" stroke-linecap="square" stroke-linejoin="miter" stroke-miterlimit="2" transform="matrix(1,0,0,1,8,53)"
>
</g>

<g fill="#332900" fill-opacity="1" stroke="none" transform="matrix(1,0,0,1,8,53)"
>
<path vector-effect="none" fill-rule="nonzero" d="M17,17 L9,13 L9,21 L17,17"/>
</g>

<g fill="none" stroke="#332900" stroke-opacity="1" stroke-width="1" stroke-linecap="butt" stroke-linejoin="miter" stroke-miterlimit="4" transform="matrix(1,0,0,1,8,53)"
>
<path vector-effect="none" fill-rule="nonzero" d="M17,17 L9,13 L9,21 L17,17"/>
</g>

<g fill="#0f0c00" fill-opacity="1" stroke="#000000" stroke-opacity="1" stroke-width="1" stroke-linecap="square" stroke-linejoin="miter" stroke-miterlimit="2" transform="matrix(1,0,0,1,8,53)"
>
</g>

<g fill="#332900" fill-opacity="1" stroke="none" transform="matrix(1,0,0,1,8,53)"
>
<path vector-effect="none" fill-rule="nonzero" d="M41,3 L109,3 C114.523,3 119,7.47715 119,13 L119,25 C119,30.5229 114.523,35 109,35 L41,35 C35.4771,35 31,30.5229 31,25 L31,13 C31,7.47715 35.4771,3 41,3 "/>
</g>

<g fill="none" stroke="#332900" stroke-opacity="1" stroke-width="1" stroke-linecap="butt" stroke-linejoin="miter" stroke-miterlimit="4" transform="matrix(1,0,0,1,8,53)"
>
<path vector-effect="none" fill-rule="nonzero" d="M41,3 L109,3 C114.523,3 119,7.47715 119,13 L119,25 C119,30.5229 114.523,35 109,35 L41,35 C35.4771,35 31,30.5229 31,25 L31,13 C31,7.47715 35.4771,3 41,3 "/>
</g>

<g fill="#0f0c00" fill-opacity="1" stroke="#000000" stroke-opacity="1" stroke-width="1" stroke-linecap="square" stroke-linejoin="miter" stroke-miterlimit="2" transform="matrix(1,0,0,1,8,53)"
>
</g>

<g fill="#ffdb4d" fill-opacity="1" stroke="none" transform="matrix(1,0,0,1,8,53)"
>
<path vector-effect="none" fill-rule="nonzero" d="M39,1 L107,1 C112.523,1 117,5.47715 117,11 L117,23 C117,28.5229 112.523,33 107,33 L39,33 C33.4771,33 29,28.5229 29,23 L29,11 C29,5.47715 33.4771,1 39,1 "/>
</g>

<g fill="none" stroke="#332900" stroke-opacity="1" stroke-width="1" stroke-linecap="butt" stroke-linejoin="miter" stroke-miterlimit="4" transform="matrix(1,0,0,1,8,53)"
>
<path vector-effect="none" fill-rule="nonzero" d="M39,1 L107,1 C112.523,1 117,5.47715 117,11 L117,23 C117,28.5229 112.523,33 107,33 L39,33 C33.4771,33 29,28.5229 29,23 L29,11 C29,5.47715 33.4771,1 39,1 "/>
</g>

<g fill="#0f0c00" fill-opacity="1" stroke="#000000" stroke-opacity="1" stroke-width="1" stroke-linecap="square" stroke-linejoin="miter" stroke-miterlimit="2" transform="matrix(1,0,0,1,8,53)"
>
</g>

<g fill="#141000" fill-opacity="1" stroke="#000000" stroke-opacity="1" stroke-width="1" stroke-linecap="square" stroke-linejoin="miter" stroke-miterlimit="2" transform="matrix(1,0,0,1,8,53)"
>
</g>

<g fill="#141000" fill-opacity="1" stroke="#141000" stroke-opacity="1" stroke-width="1" stroke-linecap="square" stroke-linejoin="bevel" transform="matrix(1,0,0,1,8,53)"
>
<text fill="#141000" fill-opacity="1" stroke="none" xml:space="preserve" x="39" y="21" font-family="Verdana" font-size="12" font-weight="700" font-style="normal" 
 >DESCRIBE</text>
</g>

<g fill="#141000" fill-opacity="1" stroke="#000000" stroke-opacity="1" stroke-width="1" stroke-linecap="square" stroke-linejoin="miter" stroke-miterlimit="2" transform="matrix(1,0,0,1,8,53)"
>
</g>

<g fill="#0f0c00" fill-opacity="1" stroke="#000000" stroke-opacity="1" stroke-width="1" stroke-linecap="square" stroke-linejoin="miter" stroke-miterlimit="2" transform="matrix(1,0,0,1,8,53)"
>
</g>

<g fill="#0f0c00" fill-opacity="1" stroke="#000000" stroke-opacity="1" stroke-width="1" stroke-linecap="square" stroke-linejoin="miter" stroke-miterlimit="2" transform="matrix(1,0,0,1,8,53)"
>
</g>

<g fill="#0f0c00" fill-opacity="1" stroke="#000000" stroke-opacity="1" stroke-width="1" stroke-linecap="square" stroke-linejoin="miter" stroke-miterlimit="2" transform="matrix(1,0,0,1,8,53)"
>
</g>

<g fill="#332900" fill-opacity="1" stroke="none" transform="matrix(1,0,0,1,8,53)"
>
<path vector-effect="none" fill-rule="evenodd" d="M139,3 L235,3 L235,35 L139,35 L139,3"/>
</g>

<g fill="none" stroke="#332900" stroke-opacity="1" stroke-width="1" stroke-linecap="butt" stroke-linejoin="miter" stroke-miterlimit="4" transform="matrix(1,0,0,1,8,53)"
>
<path vector-effect="none" fill-rule="nonzero" d="M139,3 L235,3 L235,35 L139,35 L139,3"/>
</g>

<g fill="#0f0c00" fill-opacity="1" stroke="#000000" stroke-opacity="1" stroke-width="1" stroke-linecap="square" stroke-linejoin="miter" stroke-miterlimit="2" transform="matrix(1,0,0,1,8,53)"
>
</g>

<g fill="#ffec9e" fill-opacity="1" stroke="none" transform="matrix(1,0,0,1,8,53)"
>
<path vector-effect="none" fill-rule="evenodd" d="M137,1 L233,1 L233,33 L137,33 L137,1"/>
</g>

<g fill="none" stroke="#332900" stroke-opacity="1" stroke-width="1" stroke-linecap="butt" stroke-linejoin="miter" stroke-miterlimit="4" transform="matrix(1,0,0,1,8,53)"
>
<path vector-effect="none" fill-rule="nonzero" d="M137,1 L233,1 L233,33 L137,33 L137,1"/>
</g>

<g fill="#0f0c00" fill-opacity="1" stroke="#000000" stroke-opacity="1" stroke-width="1" stroke-linecap="square" stroke-linejoin="miter" stroke-miterlimit="2" transform="matrix(1,0,0,1,8,53)"
>
</g>

<g fill="#1a1400" fill-opacity="1" stroke="#000000" stroke-opacity="1" stroke-width="1" stroke-linecap="square" stroke-linejoin="miter" stroke-miterlimit="2" transform="matrix(1,0,0,1,8,53)"
>
</g>

<g fill="#1a1400" fill-opacity="1" stroke="#1a1400" stroke-opacity="1" stroke-width="1" stroke-linecap="square" stroke-linejoin="bevel" transform="matrix(1,0,0,1,8,53)"
>
<text fill="#1a1400" fill-opacity="1" stroke="none" xml:space="preserve" x="147" y="21" font-family="Verdana" font-size="12" font-weight="400" font-style="normal" 
 >table_name</text>
</g>

<g fill="#1a1400" fill-opacity="1" stroke="#000000" stroke-opacity="1" stroke-width="1" stroke-linecap="square" stroke-linejoin="miter" stroke-miterlimit="2" transform="matrix(1,0,0,1,8,53)"
>
</g>

<g fill="#0f0c00" fill-opacity="1" stroke="#000000" stroke-opacity="1" stroke-width="1" stroke-linecap="square" stroke-linejoin="miter" stroke-miterlimit="2" transform="matrix(1,0,0,1,8,53)"
>
</g>

<g fill="#0f0c00" fill-opacity="1" stroke="#000000" stroke-opacity="1" stroke-width="1" stroke-linecap="square" stroke-linejoin="miter" stroke-miterlimit="2" transform="matrix(1,0,0,1,8,53)"
>
</g>

<g fill="#0f0c00" fill-opacity="1" stroke="#000000" stroke-opacity="1" stroke-width="1" stroke-linecap="square" stroke-linejoin="miter" stroke-miterlimit="2" transform="matrix(1,0,0,1,8,53)"
>
</g>

<g fill="#0f0c00" fill-opacity="1" stroke="#000000" stroke-opacity="1" stroke-width="1" stroke-linecap="square" stroke-linejoin="miter" stroke-miterlimit="2" transform="matrix(1,0,0,1,8,53)"
>
</g>

<g fill="none" stroke="#332900" stroke-opacity="1" stroke-width="1" stroke-linecap="butt" stroke-linejoin="miter" stroke-miterlimit="4" transform="matrix(1,0,0,1,8,53)"
>
<path vector-effect="none" fill-rule="nonzero" d="M17,17 L19,17 M19,17 L29,17 M117,17 L127,17 M127,17 L137,17 M233,17 L243,17 M246,17 L243,17"/>
</g>

<g fill="#0f0c00" fill-opacity="1" stroke="#000000" stroke-opacity="1" stroke-width="1" stroke-linecap="square" stroke-linejoin="miter" stroke-miterlimit="2" transform="matrix(1,0,0,1,8,53)"
>
</g>

<g fill="#332900" fill-opacity="1" stroke="none" transform="matrix(1,0,0,1,8,53)"
>
<path vector-effect="none" fill-rule="nonzero" d="M253,17 L261,13 L261,21 L253,17"/>
</g>

<g fill="none" stroke="#332900" stroke-opacity="1" stroke-width="1" stroke-linecap="butt" stroke-linejoin="miter" stroke-miterlimit="4" transform="matrix(1,0,0,1,8,53)"
>
<path vector-effect="none" fill-rule="nonzero" d="M253,17 L261,13 L261,21 L253,17"/>
</g>

<g fill="#0f0c00" fill-opacity="1" stroke="#000000" stroke-opacity="1" stroke-width="1" stroke-linecap="square" stroke-linejoin="miter" stroke-miterlimit="2" transform="matrix(1,0,0,1,8,53)"
>
</g>

<g fill="#332900" fill-opacity="1" stroke="none" transform="matrix(1,0,0,1,8,53)"
>
<path vector-effect="none" fill-rule="nonzero" d="M253,17 L245,13 L245,21 L253,17"/>
</g>

<g fill="none" stroke="#332900" stroke-opacity="1" stroke-width="1" stroke-linecap="butt" stroke-linejoin="miter" stroke-miterlimit="4" transform="matrix(1,0,0,1,8,53)"
>
<path vector-effect="none" fill-rule="nonzero" d="M253,17 L245,13 L245,21 L253,17"/>
</g>

<g fill="#0f0c00" fill-opacity="1" stroke="#000000" stroke-opacity="1" stroke-width="1" stroke-linecap="square" stroke-linejoin="miter" stroke-miterlimit="2" transform="matrix(1,0,0,1,8,53)"
>
</g>

<g fill="#0f0c00" fill-opacity="1" stroke="#000000" stroke-opacity="1" stroke-width="1" stroke-linecap="square" stroke-linejoin="miter" stroke-miterlimit="2" transform="matrix(1,0,0,1,8,53)"
>
</g>

<g fill="#0f0c00" fill-opacity="1" stroke="#000000" stroke-opacity="1" stroke-width="1" stroke-linecap="square" stroke-linejoin="miter" stroke-miterlimit="2" transform="matrix(1,0,0,1,0,0)"
>
</g>

<g fill="#0f0c00" fill-opacity="1" stroke="#000000" stroke-opacity="1" stroke-width="1" stroke-linecap="square" stroke-linejoin="miter" stroke-miterlimit="2" transform="matrix(1,0,0,1,0,0)"
>
</g>

<g fill="#0f0c00" fill-opacity="1" stroke="#000000" stroke-opacity="1" stroke-width="1" stroke-linecap="square" stroke-linejoin="miter" stroke-miterlimit="2" transform="matrix(1,0,0,1,0,0)"
>
</g>

<g fill="#0f0c00" fill-opacity="1" stroke="#000000" stroke-opacity="1" stroke-width="1" stroke-linecap="square" stroke-linejoin="miter" stroke-miterlimit="2" transform="matrix(1,0,0,1,0,0)"
>
</g>

<g fill="#0f0c00" fill-opacity="1" stroke="#000000" stroke-opacity="1" stroke-width="1" stroke-linecap="square" stroke-linejoin="miter" stroke-miterlimit="2" transform="matrix(1,0,0,1,8,53)"
>
</g>

<g fill="#0f0c00" fill-opacity="1" stroke="#000000" stroke-opacity="1" stroke-width="1" stroke-linecap="square" stroke-linejoin="miter" stroke-miterlimit="2" transform="matrix(1,0,0,1,8,53)"
>
</g>

<g fill="#0f0c00" fill-opacity="1" stroke="#000000" stroke-opacity="1" stroke-width="1" stroke-linecap="square" stroke-linejoin="miter" stroke-miterlimit="2" transform="matrix(1,0,0,1,8,53)"
>
</g>

<g fill="#0f0c00" fill-opacity="1" stroke="#000000" stroke-opacity="1" stroke-width="1" stroke-linecap="square" stroke-linejoin="miter" stroke-miterlimit="2" transform="matrix(1,0,0,1,0,0)"
>
</g>

<g fill="#0f0c00" fill-opacity="1" stroke="#000000" stroke-opacity="1" stroke-width="1" stroke-linecap="square" stroke-linejoin="miter" stroke-miterlimit="2" transform="matrix(1,0,0,1,0,0)"
>
</g>

<g fill="#0f0c00" fill-opacity="1" stroke="#000000" stroke-opacity="1" stroke-width="1" stroke-linecap="square" stroke-linejoin="miter" stroke-miterlimit="2" transform="matrix(1,0,0,1,0,0)"
>
</g>

<g fill="#0f0c00" fill-opacity="1" stroke="#0f0c00" stroke-opacity="1" stroke-width="1" stroke-linecap="square" stroke-linejoin="bevel" transform="matrix(1,0,0,1,0,0)"
>
<text fill="#0f0c00" fill-opacity="1" stroke="none" xml:space="preserve" x="8" y="114" font-family="Verdana" font-size="12" font-weight="400" font-style="normal" 
 >no references</text>
</g>

<g fill="#0f0c00" fill-opacity="1" stroke="#0f0c00" stroke-opacity="1" stroke-width="1" stroke-linecap="square" stroke-linejoin="bevel" transform="matrix(1,0,0,1,0,0)"
>
<text fill="#0f0c00" fill-opacity="1" stroke="none" xml:space="preserve" x="8" y="170" font-family="Verdana" font-size="14" font-weight="700" font-style="normal" 
 >table_name:</text>
</g>

<g fill="#0f0c00" fill-opacity="1" stroke="#000000" stroke-opacity="1" stroke-width="1" stroke-linecap="square" stroke-linejoin="miter" stroke-miterlimit="2" transform="matrix(1,0,0,1,0,0)"
>
</g>

<g fill="#0f0c00" fill-opacity="1" stroke="#000000" stroke-opacity="1" stroke-width="1" stroke-linecap="square" stroke-linejoin="miter" stroke-miterlimit="2" transform="matrix(1,0,0,1,0,0)"
>
</g>

<g fill="#0f0c00" fill-opacity="1" stroke="#000000" stroke-opacity="1" stroke-width="1" stroke-linecap="square" stroke-linejoin="miter" stroke-miterlimit="2" transform="matrix(1,0,0,1,8,187)"
>
</g>

<g fill="#332900" fill-opacity="1" stroke="none" transform="matrix(1,0,0,1,8,187)"
>
<path vector-effect="none" fill-rule="nonzero" d="M9,33 L1,29 L1,37 L9,33"/>
</g>

<g fill="none" stroke="#332900" stroke-opacity="1" stroke-width="1" stroke-linecap="butt" stroke-linejoin="miter" stroke-miterlimit="4" transform="matrix(1,0,0,1,8,187)"
>
<path vector-effect="none" fill-rule="nonzero" d="M9,33 L1,29 L1,37 L9,33"/>
</g>

<g fill="#0f0c00" fill-opacity="1" stroke="#000000" stroke-opacity="1" stroke-width="1" stroke-linecap="square" stroke-linejoin="miter" stroke-miterlimit="2" transform="matrix(1,0,0,1,8,187)"
>
</g>

<g fill="#332900" fill-opacity="1" stroke="none" transform="matrix(1,0,0,1,8,187)"
>
<path vector-effect="none" fill-rule="nonzero" d="M17,33 L9,29 L9,37 L17,33"/>
</g>

<g fill="none" stroke="#332900" stroke-opacity="1" stroke-width="1" stroke-linecap="butt" stroke-linejoin="miter" stroke-miterlimit="4" transform="matrix(1,0,0,1,8,187)"
>
<path vector-effect="none" fill-rule="nonzero" d="M17,33 L9,29 L9,37 L17,33"/>
</g>

<g fill="#0f0c00" fill-opacity="1" stroke="#000000" stroke-opacity="1" stroke-width="1" stroke-linecap="square" stroke-linejoin="miter" stroke-miterlimit="2" transform="matrix(1,0,0,1,8,187)"
>
</g>

<g fill="#332900" fill-opacity="1" stroke="none" transform="matrix(1,0,0,1,8,187)"
>
<path vector-effect="none" fill-rule="nonzero" d="M71,35 L78,19 L126,19 L133,35 L126,51 L78,51 L71,35"/>
</g>

<g fill="none" stroke="#332900" stroke-opacity="1" stroke-width="1" stroke-linecap="butt" stroke-linejoin="miter" stroke-miterlimit="4" transform="matrix(1,0,0,1,8,187)"
>
<path vector-effect="none" fill-rule="nonzero" d="M71,35 L78,19 L126,19 L133,35 L126,51 L78,51 L71,35"/>
</g>

<g fill="#0f0c00" fill-opacity="1" stroke="#000000" stroke-opacity="1" stroke-width="1" stroke-linecap="square" stroke-linejoin="miter" stroke-miterlimit="2" transform="matrix(1,0,0,1,8,187)"
>
</g>

<g fill="#fff4c7" fill-opacity="1" stroke="none" transform="matrix(1,0,0,1,8,187)"
>
<path vector-effect="none" fill-rule="nonzero" d="M69,33 L76,17 L124,17 L131,33 L124,49 L76,49 L69,33"/>
</g>

<g fill="none" stroke="#332900" stroke-opacity="1" stroke-width="1" stroke-linecap="butt" stroke-linejoin="miter" stroke-miterlimit="4" transform="matrix(1,0,0,1,8,187)"
>
<path vector-effect="none" fill-rule="nonzero" d="M69,33 L76,17 L124,17 L131,33 L124,49 L76,49 L69,33"/>
</g>

<g fill="#0f0c00" fill-opacity="1" stroke="#000000" stroke-opacity="1" stroke-width="1" stroke-linecap="square" stroke-linejoin="miter" stroke-miterlimit="2" transform="matrix(1,0,0,1,8,187)"
>
</g>

<g fill="#1f1800" fill-opacity="1" stroke="#000000" stroke-opacity="1" stroke-width="1" stroke-linecap="square" stroke-linejoin="miter" stroke-miterlimit="2" transform="matrix(1,0,0,1,8,187)"
>
</g>

<g fill="#1f1800" fill-opacity="1" stroke="#1f1800" stroke-opacity="1" stroke-width="1" stroke-linecap="square" stroke-linejoin="bevel" transform="matrix(1,0,0,1,8,187)"
>
<text fill="#1f1800" fill-opacity="1" stroke="none" xml:space="preserve" x="84" y="37" font-family="Verdana" font-size="12" font-weight="400" font-style="normal" 
 >[A-Z]</text>
</g>

<g fill="#1f1800" fill-opacity="1" stroke="#000000" stroke-opacity="1" stroke-width="1" stroke-linecap="square" stroke-linejoin="miter" stroke-miterlimit="2" transform="matrix(1,0,0,1,8,187)"
>
</g>

<g fill="#0f0c00" fill-opacity="1" stroke="#000000" stroke-opacity="1" stroke-width="1" stroke-linecap="square" stroke-linejoin="miter" stroke-miterlimit="2" transform="matrix(1,0,0,1,8,187)"
>
</g>

<g fill="#0f0c00" fill-opacity="1" stroke="#000000" stroke-opacity="1" stroke-width="1" stroke-linecap="square" stroke-linejoin="miter" stroke-miterlimit="2" transform="matrix(1,0,0,1,8,187)"
>
</g>

<g fill="#0f0c00" fill-opacity="1" stroke="#000000" stroke-opacity="1" stroke-width="1" stroke-linecap="square" stroke-linejoin="miter" stroke-miterlimit="2" transform="matrix(1,0,0,1,8,187)"
>
</g>

<g fill="#332900" fill-opacity="1" stroke="none" transform="matrix(1,0,0,1,8,187)"
>
<path vector-effect="none" fill-rule="nonzero" d="M71,79 L78,63 L124,63 L131,79 L124,95 L78,95 L71,79"/>
</g>

<g fill="none" stroke="#332900" stroke-opacity="1" stroke-width="1" stroke-linecap="butt" stroke-linejoin="miter" stroke-miterlimit="4" transform="matrix(1,0,0,1,8,187)"
>
<path vector-effect="none" fill-rule="nonzero" d="M71,79 L78,63 L124,63 L131,79 L124,95 L78,95 L71,79"/>
</g>

<g fill="#0f0c00" fill-opacity="1" stroke="#000000" stroke-opacity="1" stroke-width="1" stroke-linecap="square" stroke-linejoin="miter" stroke-miterlimit="2" transform="matrix(1,0,0,1,8,187)"
>
</g>

<g fill="#fff4c7" fill-opacity="1" stroke="none" transform="matrix(1,0,0,1,8,187)"
>
<path vector-effect="none" fill-rule="nonzero" d="M69,77 L76,61 L122,61 L129,77 L122,93 L76,93 L69,77"/>
</g>

<g fill="none" stroke="#332900" stroke-opacity="1" stroke-width="1" stroke-linecap="butt" stroke-linejoin="miter" stroke-miterlimit="4" transform="matrix(1,0,0,1,8,187)"
>
<path vector-effect="none" fill-rule="nonzero" d="M69,77 L76,61 L122,61 L129,77 L122,93 L76,93 L69,77"/>
</g>

<g fill="#0f0c00" fill-opacity="1" stroke="#000000" stroke-opacity="1" stroke-width="1" stroke-linecap="square" stroke-linejoin="miter" stroke-miterlimit="2" transform="matrix(1,0,0,1,8,187)"
>
</g>

<g fill="#1f1800" fill-opacity="1" stroke="#000000" stroke-opacity="1" stroke-width="1" stroke-linecap="square" stroke-linejoin="miter" stroke-miterlimit="2" transform="matrix(1,0,0,1,8,187)"
>
</g>

<g fill="#1f1800" fill-opacity="1" stroke="#1f1800" stroke-opacity="1" stroke-width="1" stroke-linecap="square" stroke-linejoin="bevel" transform="matrix(1,0,0,1,8,187)"
>
<text fill="#1f1800" fill-opacity="1" stroke="none" xml:space="preserve" x="84" y="81" font-family="Verdana" font-size="12" font-weight="400" font-style="normal" 
 >[a-z]</text>
</g>

<g fill="#1f1800" fill-opacity="1" stroke="#000000" stroke-opacity="1" stroke-width="1" stroke-linecap="square" stroke-linejoin="miter" stroke-miterlimit="2" transform="matrix(1,0,0,1,8,187)"
>
</g>

<g fill="#0f0c00" fill-opacity="1" stroke="#000000" stroke-opacity="1" stroke-width="1" stroke-linecap="square" stroke-linejoin="miter" stroke-miterlimit="2" transform="matrix(1,0,0,1,8,187)"
>
</g>

<g fill="#0f0c00" fill-opacity="1" stroke="#000000" stroke-opacity="1" stroke-width="1" stroke-linecap="square" stroke-linejoin="miter" stroke-miterlimit="2" transform="matrix(1,0,0,1,8,187)"
>
</g>

<g fill="#0f0c00" fill-opacity="1" stroke="#000000" stroke-opacity="1" stroke-width="1" stroke-linecap="square" stroke-linejoin="miter" stroke-miterlimit="2" transform="matrix(1,0,0,1,8,187)"
>
</g>

<g fill="#332900" fill-opacity="1" stroke="none" transform="matrix(1,0,0,1,8,187)"
>
<path vector-effect="none" fill-rule="nonzero" d="M71,123 L78,107 L126,107 L133,123 L126,139 L78,139 L71,123"/>
</g>

<g fill="none" stroke="#332900" stroke-opacity="1" stroke-width="1" stroke-linecap="butt" stroke-linejoin="miter" stroke-miterlimit="4" transform="matrix(1,0,0,1,8,187)"
>
<path vector-effect="none" fill-rule="nonzero" d="M71,123 L78,107 L126,107 L133,123 L126,139 L78,139 L71,123"/>
</g>

<g fill="#0f0c00" fill-opacity="1" stroke="#000000" stroke-opacity="1" stroke-width="1" stroke-linecap="square" stroke-linejoin="miter" stroke-miterlimit="2" transform="matrix(1,0,0,1,8,187)"
>
</g>

<g fill="#fff4c7" fill-opacity="1" stroke="none" transform="matrix(1,0,0,1,8,187)"
>
<path vector-effect="none" fill-rule="nonzero" d="M69,121 L76,105 L124,105 L131,121 L124,137 L76,137 L69,121"/>
</g>

<g fill="none" stroke="#332900" stroke-opacity="1" stroke-width="1" stroke-linecap="butt" stroke-linejoin="miter" stroke-miterlimit="4" transform="matrix(1,0,0,1,8,187)"
>
<path vector-effect="none" fill-rule="nonzero" d="M69,121 L76,105 L124,105 L131,121 L124,137 L76,137 L69,121"/>
</g>

<g fill="#0f0c00" fill-opacity="1" stroke="#000000" stroke-opacity="1" stroke-width="1" stroke-linecap="square" stroke-linejoin="miter" stroke-miterlimit="2" transform="matrix(1,0,0,1,8,187)"
>
</g>

<g fill="#1f1800" fill-opacity="1" stroke="#000000" stroke-opacity="1" stroke-width="1" stroke-linecap="square" stroke-linejoin="miter" stroke-miterlimit="2" transform="matrix(1,0,0,1,8,187)"
>
</g>

<g fill="#1f1800" fill-opacity="1" stroke="#1f1800" stroke-opacity="1" stroke-width="1" stroke-linecap="square" stroke-linejoin="bevel" transform="matrix(1,0,0,1,8,187)"
>
<text fill="#1f1800" fill-opacity="1" stroke="none" xml:space="preserve" x="84" y="125" font-family="Verdana" font-size="12" font-weight="400" font-style="normal" 
 >[0-9]</text>
</g>

<g fill="#1f1800" fill-opacity="1" stroke="#000000" stroke-opacity="1" stroke-width="1" stroke-linecap="square" stroke-linejoin="miter" stroke-miterlimit="2" transform="matrix(1,0,0,1,8,187)"
>
</g>

<g fill="#0f0c00" fill-opacity="1" stroke="#000000" stroke-opacity="1" stroke-width="1" stroke-linecap="square" stroke-linejoin="miter" stroke-miterlimit="2" transform="matrix(1,0,0,1,8,187)"
>
</g>

<g fill="#0f0c00" fill-opacity="1" stroke="#000000" stroke-opacity="1" stroke-width="1" stroke-linecap="square" stroke-linejoin="miter" stroke-miterlimit="2" transform="matrix(1,0,0,1,8,187)"
>
</g>

<g fill="#0f0c00" fill-opacity="1" stroke="#000000" stroke-opacity="1" stroke-width="1" stroke-linecap="square" stroke-linejoin="miter" stroke-miterlimit="2" transform="matrix(1,0,0,1,8,187)"
>
</g>

<g fill="#332900" fill-opacity="1" stroke="none" transform="matrix(1,0,0,1,8,187)"
>
<path vector-effect="none" fill-rule="nonzero" d="M81,151 L89,151 C94.5229,151 99,155.477 99,161 L99,173 C99,178.523 94.5229,183 89,183 L81,183 C75.4771,183 71,178.523 71,173 L71,161 C71,155.477 75.4771,151 81,151 "/>
</g>

<g fill="none" stroke="#332900" stroke-opacity="1" stroke-width="1" stroke-linecap="butt" stroke-linejoin="miter" stroke-miterlimit="4" transform="matrix(1,0,0,1,8,187)"
>
<path vector-effect="none" fill-rule="nonzero" d="M81,151 L89,151 C94.5229,151 99,155.477 99,161 L99,173 C99,178.523 94.5229,183 89,183 L81,183 C75.4771,183 71,178.523 71,173 L71,161 C71,155.477 75.4771,151 81,151 "/>
</g>

<g fill="#0f0c00" fill-opacity="1" stroke="#000000" stroke-opacity="1" stroke-width="1" stroke-linecap="square" stroke-linejoin="miter" stroke-miterlimit="2" transform="matrix(1,0,0,1,8,187)"
>
</g>

<g fill="#ffdb4d" fill-opacity="1" stroke="none" transform="matrix(1,0,0,1,8,187)"
>
<path vector-effect="none" fill-rule="nonzero" d="M79,149 L87,149 C92.5229,149 97,153.477 97,159 L97,171 C97,176.523 92.5229,181 87,181 L79,181 C73.4771,181 69,176.523 69,171 L69,159 C69,153.477 73.4771,149 79,149 "/>
</g>

<g fill="none" stroke="#332900" stroke-opacity="1" stroke-width="1" stroke-linecap="butt" stroke-linejoin="miter" stroke-miterlimit="4" transform="matrix(1,0,0,1,8,187)"
>
<path vector-effect="none" fill-rule="nonzero" d="M79,149 L87,149 C92.5229,149 97,153.477 97,159 L97,171 C97,176.523 92.5229,181 87,181 L79,181 C73.4771,181 69,176.523 69,171 L69,159 C69,153.477 73.4771,149 79,149 "/>
</g>

<g fill="#0f0c00" fill-opacity="1" stroke="#000000" stroke-opacity="1" stroke-width="1" stroke-linecap="square" stroke-linejoin="miter" stroke-miterlimit="2" transform="matrix(1,0,0,1,8,187)"
>
</g>

<g fill="#141000" fill-opacity="1" stroke="#000000" stroke-opacity="1" stroke-width="1" stroke-linecap="square" stroke-linejoin="miter" stroke-miterlimit="2" transform="matrix(1,0,0,1,8,187)"
>
</g>

<g fill="#141000" fill-opacity="1" stroke="#141000" stroke-opacity="1" stroke-width="1" stroke-linecap="square" stroke-linejoin="bevel" transform="matrix(1,0,0,1,8,187)"
>
<text fill="#141000" fill-opacity="1" stroke="none" xml:space="preserve" x="79" y="169" font-family="Verdana" font-size="12" font-weight="700" font-style="normal" 
 >_</text>
</g>

<g fill="#141000" fill-opacity="1" stroke="#000000" stroke-opacity="1" stroke-width="1" stroke-linecap="square" stroke-linejoin="miter" stroke-miterlimit="2" transform="matrix(1,0,0,1,8,187)"
>
</g>

<g fill="#0f0c00" fill-opacity="1" stroke="#000000" stroke-opacity="1" stroke-width="1" stroke-linecap="square" stroke-linejoin="miter" stroke-miterlimit="2" transform="matrix(1,0,0,1,8,187)"
>
</g>

<g fill="#0f0c00" fill-opacity="1" stroke="#000000" stroke-opacity="1" stroke-width="1" stroke-linecap="square" stroke-linejoin="miter" stroke-miterlimit="2" transform="matrix(1,0,0,1,8,187)"
>
</g>

<g fill="#0f0c00" fill-opacity="1" stroke="#000000" stroke-opacity="1" stroke-width="1" stroke-linecap="square" stroke-linejoin="miter" stroke-miterlimit="2" transform="matrix(1,0,0,1,8,187)"
>
</g>

<g fill="none" stroke="#332900" stroke-opacity="1" stroke-width="1" stroke-linecap="butt" stroke-linejoin="miter" stroke-miterlimit="4" transform="matrix(1,0,0,1,8,187)"
>
<path vector-effect="none" fill-rule="nonzero" d="M17,33 L19,33 M59,33 L69,33 M131,33 L141,33 M39,33 L59,33 M141,33 L161,33 M39,33 C45.6667,33 49,36.3333 49,43 M151,43 C151,36.3333 154.333,33 161,33 M49,43 L49,67 M151,67 L151,43 M49,67 C49,73.6667 52.3333,77 59,77 M141,77 C147.667,77 151,73.6667 151,67 M59,77 L69,77 M129,77 L139,77 M139,77 L141,77 M49,67 L49,87 M151,87 L151,67 M49,87 L49,111 M151,111 L151,87 M49,111 C49,117.667 52.3333,121 59,121 M141,121 C147.667,121 151,117.667 151,111 M59,121 L69,121 M131,121 L141,121 M49,111 L49,131 M151,131 L151,111 M49,131 L49,155 M151,155 L151,131 M49,155 C49,161.667 52.3333,165 59,165 M141,165 C147.667,165 151,161.667 151,155 M59,165 L69,165 M97,165 L107,165 M107,165 L141,165 M19,33 L39,33 M38,33 C32,33 29,29.6667 29,23 L29,11 C29,4.33333 32.3333,1 39,1 M161,33 L181,33 M161,33 C167.667,33 171,29.6667 171,23 L171,11 C171,4.33333 167.667,1 161,1 M39,1 L49,1 M49,1 L161,1 M184,33 L181,33"/>
</g>

<g fill="#0f0c00" fill-opacity="1" stroke="#000000" stroke-opacity="1" stroke-width="1" stroke-linecap="square" stroke-linejoin="miter" stroke-miterlimit="2" transform="matrix(1,0,0,1,8,187)"
>
</g>

<g fill="#332900" fill-opacity="1" stroke="none" transform="matrix(1,0,0,1,8,187)"
>
<path vector-effect="none" fill-rule="nonzero" d="M191,33 L199,29 L199,37 L191,33"/>
</g>

<g fill="none" stroke="#332900" stroke-opacity="1" stroke-width="1" stroke-linecap="butt" stroke-linejoin="miter" stroke-miterlimit="4" transform="matrix(1,0,0,1,8,187)"
>
<path vector-effect="none" fill-rule="nonzero" d="M191,33 L199,29 L199,37 L191,33"/>
</g>

<g fill="#0f0c00" fill-opacity="1" stroke="#000000" stroke-opacity="1" stroke-width="1" stroke-linecap="square" stroke-linejoin="miter" stroke-miterlimit="2" transform="matrix(1,0,0,1,8,187)"
>
</g>

<g fill="#332900" fill-opacity="1" stroke="none" transform="matrix(1,0,0,1,8,187)"
>
<path vector-effect="none" fill-rule="nonzero" d="M191,33 L183,29 L183,37 L191,33"/>
</g>

<g fill="none" stroke="#332900" stroke-opacity="1" stroke-width="1" stroke-linecap="butt" stroke-linejoin="miter" stroke-miterlimit="4" transform="matrix(1,0,0,1,8,187)"
>
<path vector-effect="none" fill-rule="nonzero" d="M191,33 L183,29 L183,37 L191,33"/>
</g>

<g fill="#0f0c00" fill-opacity="1" stroke="#000000" stroke-opacity="1" stroke-width="1" stroke-linecap="square" stroke-linejoin="miter" stroke-miterlimit="2" transform="matrix(1,0,0,1,8,187)"
>
</g>

<g fill="#0f0c00" fill-opacity="1" stroke="#000000" stroke-opacity="1" stroke-width="1" stroke-linecap="square" stroke-linejoin="miter" stroke-miterlimit="2" transform="matrix(1,0,0,1,8,187)"
>
</g>

<g fill="#0f0c00" fill-opacity="1" stroke="#000000" stroke-opacity="1" stroke-width="1" stroke-linecap="square" stroke-linejoin="miter" stroke-miterlimit="2" transform="matrix(1,0,0,1,0,0)"
>
</g>

<g fill="#0f0c00" fill-opacity="1" stroke="#000000" stroke-opacity="1" stroke-width="1" stroke-linecap="square" stroke-linejoin="miter" stroke-miterlimit="2" transform="matrix(1,0,0,1,0,0)"
>
</g>

<g fill="#0f0c00" fill-opacity="1" stroke="#000000" stroke-opacity="1" stroke-width="1" stroke-linecap="square" stroke-linejoin="miter" stroke-miterlimit="2" transform="matrix(1,0,0,1,0,0)"
>
</g>

<g fill="#0f0c00" fill-opacity="1" stroke="#000000" stroke-opacity="1" stroke-width="1" stroke-linecap="square" stroke-linejoin="miter" stroke-miterlimit="2" transform="matrix(1,0,0,1,0,0)"
>
</g>

<g fill="#0f0c00" fill-opacity="1" stroke="#000000" stroke-opacity="1" stroke-width="1" stroke-linecap="square" stroke-linejoin="miter" stroke-miterlimit="2" transform="matrix(1,0,0,1,8,187)"
>
</g>

<g fill="#0f0c00" fill-opacity="1" stroke="#000000" stroke-opacity="1" stroke-width="1" stroke-linecap="square" stroke-linejoin="miter" stroke-miterlimit="2" transform="matrix(1,0,0,1,0,0)"
>
</g>

<g fill="#0f0c00" fill-opacity="1" stroke="#000000" stroke-opacity="1" stroke-width="1" stroke-linecap="square" stroke-linejoin="miter" stroke-miterlimit="2" transform="matrix(1,0,0,1,0,0)"
>
</g>

<g fill="#0f0c00" fill-opacity="1" stroke="#000000" stroke-opacity="1" stroke-width="1" stroke-linecap="square" stroke-linejoin="miter" stroke-miterlimit="2" transform="matrix(1,0,0,1,0,0)"
>
</g>

<g fill="#0f0c00" fill-opacity="1" stroke="#0f0c00" stroke-opacity="1" stroke-width="1" stroke-linecap="square" stroke-linejoin="bevel" transform="matrix(1,0,0,1,0,0)"
>
<text fill="#0f0c00" fill-opacity="1" stroke="none" xml:space="preserve" x="8" y="396" font-family="Verdana" font-size="12" font-weight="400" font-style="normal" 
 >referenced by:</text>
</g>

<g fill="#0f0c00" fill-opacity="1" stroke="#0f0c00" stroke-opacity="1" stroke-width="1" stroke-linecap="square" stroke-linejoin="miter" stroke-miterlimit="2" transform="matrix(1,0,0,1,0,0)"
>
<path vector-effect="none" fill-rule="evenodd" d="M37,418 C37,419.105 36.1046,420 35,420 C33.8954,420 33,419.105 33,418 C33,416.895 33.8954,416 35,416 C36.1046,416 37,416.895 37,418 "/>
</g>

<g fill="#0f0c00" fill-opacity="1" stroke="#0f0c00" stroke-opacity="1" stroke-width="1" stroke-linecap="square" stroke-linejoin="bevel" transform="matrix(1,0,0,1,0,0)"
>
<text fill="#0f0c00" fill-opacity="1" stroke="none" xml:space="preserve" x="48" y="422" font-family="Verdana" font-size="12" font-weight="400" font-style="normal" 
 >DESCRIBE</text>
</g>

<g fill="#0f0c00" fill-opacity="1" stroke="#0f0c00" stroke-opacity="1" stroke-width="1" stroke-linecap="square" stroke-linejoin="miter" stroke-miterlimit="2" transform="matrix(1,0,0,1,0,0)"
>
<polyline fill="none" vector-effect="none" points="48,423.5 110,423.5 " />
</g>

<g fill="#806600" fill-opacity="1" stroke="#806600" stroke-opacity="1" stroke-width="1" stroke-linecap="square" stroke-linejoin="bevel" transform="matrix(1,0,0,1,0,0)"
>
<text fill="#806600" fill-opacity="1" stroke="none" xml:space="preserve" x="682" y="484" font-family="Verdana" font-size="11" font-weight="400" font-style="normal" 
 >... generated by </text>
</g>

<g fill="#806600" fill-opacity="1" stroke="#806600" stroke-opacity="1" stroke-width="1" stroke-linecap="square" stroke-linejoin="bevel" transform="matrix(1,0,0,1,0,0)"
>
<text fill="#806600" fill-opacity="1" stroke="none" xml:space="preserve" x="778" y="484" font-family="Verdana" font-size="11" font-weight="400" font-style="normal" 
 >RR - Railroad Diagram Generator</text>
</g>

<g fill="#806600" fill-opacity="1" stroke="#806600" stroke-opacity="1" stroke-width="1" stroke-linecap="square" stroke-linejoin="miter" stroke-miterlimit="2" transform="matrix(1,0,0,1,0,0)"
>
<polyline fill="none" vector-effect="none" points="778,485.5 968,485.5 " />
</g>

<g fill="#806600" fill-opacity="1" stroke="#806600" stroke-opacity="1" stroke-width="1" stroke-linecap="square" stroke-linejoin="miter" stroke-miterlimit="2" transform="matrix(1,0,0,1,0,0)"
>
</g>

<g fill="#806600" fill-opacity="1" stroke="#806600" stroke-opacity="1" stroke-width="1" stroke-linecap="square" stroke-linejoin="miter" stroke-miterlimit="2" transform="matrix(1,0,0,1,0,0)"
>
</g>

<g fill="#806600" fill-opacity="1" stroke="#806600" stroke-opacity="1" stroke-width="1" stroke-linecap="square" stroke-linejoin="miter" stroke-miterlimit="2" transform="matrix(1,0,0,1,973,473)"
>
</g>

<g fill="#806600" fill-opacity="1" stroke="#806600" stroke-opacity="1" stroke-width="1" stroke-linecap="square" stroke-linejoin="miter" stroke-miterlimit="2" transform="matrix(0.178,0,0,0.178,973,473)"
>
</g>

<g fill="#ffcc00" fill-opacity="1" stroke="none" transform="matrix(0.178,0,0,0.178,973,473)"
>
<path vector-effect="none" fill-rule="nonzero" d="M90,45 C90,69.8528 69.8528,90 45,90 C20.1472,90 0,69.8528 0,45 C0,20.1472 20.1472,0 45,0 C69.8528,0 90,20.1472 90,45 "/>
</g>

<g fill="#806600" fill-opacity="1" stroke="#806600" stroke-opacity="1" stroke-width="1" stroke-linecap="square" stroke-linejoin="miter" stroke-miterlimit="2" transform="matrix(0.178,0,0,0.178,973,473)"
>
</g>

<g fill="#ffcc00" fill-opacity="1" stroke="none" transform="matrix(0.178,0,0,0.178,973,473)"
>
<path vector-effect="none" fill-rule="nonzero" d="M87,45 C87,68.196 68.196,87 45,87 C21.804,87 3,68.196 3,45 C3,21.804 21.804,3 45,3 C68.196,3 87,21.804 87,45 "/>
</g>

<g fill="none" stroke="#332900" stroke-opacity="1" stroke-width="2" stroke-linecap="butt" stroke-linejoin="miter" stroke-miterlimit="4" transform="matrix(0.178,0,0,0.178,973,473)"
>
<path vector-effect="none" fill-rule="nonzero" d="M87,45 C87,68.196 68.196,87 45,87 C21.804,87 3,68.196 3,45 C3,21.804 21.804,3 45,3 C68.196,3 87,21.804 87,45 "/>
</g>

<g fill="#806600" fill-opacity="1" stroke="#806600" stroke-opacity="1" stroke-width="1" stroke-linecap="square" stroke-linejoin="miter" stroke-miterlimit="2" transform="matrix(0.178,0,0,0.178,973,473)"
>
</g>

<g fill="#000000" fill-opacity="1" stroke="none" transform="matrix(0.178,0,0,0.178,973,473)"
>
<path vector-effect="none" fill-rule="nonzero" d="M15,15 L75,75"/>
</g>

<g fill="none" stroke="#332900" stroke-opacity="1" stroke-width="9" stroke-linecap="butt" stroke-linejoin="miter" stroke-miterlimit="4" transform="matrix(0.178,0,0,0.178,973,473)"
>
<path vector-effect="none" fill-rule="nonzero" d="M15,15 L75,75"/>
</g>

<g fill="#806600" fill-opacity="1" stroke="#806600" stroke-opacity="1" stroke-width="1" stroke-linecap="square" stroke-linejoin="miter" stroke-miterlimit="2" transform="matrix(0.178,0,0,0.178,973,473)"
>
</g>

<g fill="#000000" fill-opacity="1" stroke="none" transform="matrix(0.178,0,0,0.178,973,473)"
>
<path vector-effect="none" fill-rule="nonzero" d="M15,75 L75,15"/>
</g>

<g fill="none" stroke="#332900" stroke-opacity="1" stroke-width="9" stroke-linecap="butt" stroke-linejoin="miter" stroke-miterlimit="4" transform="matrix(0.178,0,0,0.178,973,473)"
>
<path vector-effect="none" fill-rule="nonzero" d="M15,75 L75,15"/>
</g>

<g fill="#806600" fill-opacity="1" stroke="#806600" stroke-opacity="1" stroke-width="1" stroke-linecap="square" stroke-linejoin="miter" stroke-miterlimit="2" transform="matrix(0.178,0,0,0.178,973,473)"
>
</g>

<g fill="#332900" fill-opacity="1" stroke="none" transform="matrix(1,0,0,1,973,473)"
>
<path vector-effect="none" fill-rule="nonzero" d="M1.246,9.9591 L5.246,9.9591 L5.246,10.1905 L1.246,10.1905 L1.246,9.9591"/>
</g>

<g fill="#806600" fill-opacity="1" stroke="#806600" stroke-opacity="1" stroke-width="1" stroke-linecap="square" stroke-linejoin="miter" stroke-miterlimit="2" transform="matrix(0.178,0,0,0.178,973,473)"
>
</g>

<g fill="#332900" fill-opacity="1" stroke="#806600" stroke-opacity="1" stroke-width="1" stroke-linecap="square" stroke-linejoin="miter" stroke-miterlimit="2" transform="matrix(0.178,0,0,0.178,973,473)"
>
</g>

<g fill="#332900" fill-opacity="1" stroke="#332900" stroke-opacity="1" stroke-width="1" stroke-linecap="square" stroke-linejoin="bevel" transform="matrix(1,0,0,1,973,473)"
>
<text fill="#332900" fill-opacity="1" stroke="none" xml:space="preserve" x="1.23438" y="9.60938" font-family="Arial" font-size="5" font-weight="700" font-style="normal" 
 >R</text>
</g>

<g fill="#332900" fill-opacity="1" stroke="#806600" stroke-opacity="1" stroke-width="1" stroke-linecap="square" stroke-linejoin="miter" stroke-miterlimit="2" transform="matrix(0.178,0,0,0.178,973,473)"
>
</g>

<g fill="#806600" fill-opacity="1" stroke="#806600" stroke-opacity="1" stroke-width="1" stroke-linecap="square" stroke-linejoin="miter" stroke-miterlimit="2" transform="matrix(0.178,0,0,0.178,973,473)"
>
</g>

<g fill="#806600" fill-opacity="1" stroke="#806600" stroke-opacity="1" stroke-width="1" stroke-linecap="square" stroke-linejoin="miter" stroke-miterlimit="2" transform="matrix(0.178,0,0,0.178,973,473)"
>
</g>

<g fill="#806600" fill-opacity="1" stroke="#806600" stroke-opacity="1" stroke-width="1" stroke-linecap="square" stroke-linejoin="miter" stroke-miterlimit="2" transform="matrix(0.178,0,0,0.178,973,473)"
>
</g>

<g fill="#332900" fill-opacity="1" stroke="none" transform="matrix(1,0,0,1,973,473)"
>
<path vector-effect="none" fill-rule="nonzero" d="M11.392,9.9591 L15.392,9.9591 L15.392,10.1905 L11.392,10.1905 L11.392,9.9591"/>
</g>

<g fill="#806600" fill-opacity="1" stroke="#806600" stroke-opacity="1" stroke-width="1" stroke-linecap="square" stroke-linejoin="miter" stroke-miterlimit="2" transform="matrix(0.178,0,0,0.178,973,473)"
>
</g>

<g fill="#332900" fill-opacity="1" stroke="#806600" stroke-opacity="1" stroke-width="1" stroke-linecap="square" stroke-linejoin="miter" stroke-miterlimit="2" transform="matrix(0.178,0,0,0.178,973,473)"
>
</g>

<g fill="#332900" fill-opacity="1" stroke="#332900" stroke-opacity="1" stroke-width="1" stroke-linecap="square" stroke-linejoin="bevel" transform="matrix(1,0,0,1,973,473)"
>
<text fill="#332900" fill-opacity="1" stroke="none" xml:space="preserve" x="11.3906" y="9.60938" font-family="Arial" font-size="5" font-weight="700" font-style="normal" 
 >R</text>
</g>

<g fill="#332900" fill-opacity="1" stroke="#806600" stroke-opacity="1" stroke-width="1" stroke-linecap="square" stroke-linejoin="miter" stroke-miterlimit="2" transform="matrix(0.178,0,0,0.178,973,473)"
>
</g>

<g fill="#806600" fill-opacity="1" stroke="#806600" stroke-opacity="1" stroke-width="1" stroke-linecap="square" stroke-linejoin="miter" stroke-miterlimit="2" transform="matrix(0.178,0,0,0.178,973,473)"
>
</g>

<g fill="#806600" fill-opacity="1" stroke="#806600" stroke-opacity="1" stroke-width="1" stroke-linecap="square" stroke-linejoin="miter" stroke-miterlimit="2" transform="matrix(0.178,0,0,0.178,973,473)"
>
</g>

<g fill="#806600" fill-opacity="1" stroke="#806600" stroke-opacity="1" stroke-width="1" stroke-linecap="square" stroke-linejoin="miter" stroke-miterlimit="2" transform="matrix(0.178,0,0,0.178,973,473)"
>
</g>

<g fill="#806600" fill-opacity="1" stroke="#806600" stroke-opacity="1" stroke-width="1" stroke-linecap="square" stroke-linejoin="miter" stroke-miterlimit="2" transform="matrix(1,0,0,1,973,473)"
>
</g>

<g fill="#806600" fill-opacity="1" stroke="#806600" stroke-opacity="1" stroke-width="1" stroke-linecap="square" stroke-linejoin="miter" stroke-miterlimit="2" transform="matrix(1,0,0,1,973,473)"
>
</g>

<g fill="#806600" fill-opacity="1" stroke="#806600" stroke-opacity="1" stroke-width="1" stroke-linecap="square" stroke-linejoin="miter" stroke-miterlimit="2" transform="matrix(1,0,0,1,0,0)"
>
</g>

<g fill="#806600" fill-opacity="1" stroke="#806600" stroke-opacity="1" stroke-width="1" stroke-linecap="square" stroke-linejoin="miter" stroke-miterlimit="2" transform="matrix(1,0,0,1,0,0)"
>
</g>

<g fill="#806600" fill-opacity="1" stroke="#806600" stroke-opacity="1" stroke-width="1" stroke-linecap="square" stroke-linejoin="miter" stroke-miterlimit="2" transform="matrix(1,0,0,1,0,0)"
>
</g>

<g fill="#806600" fill-opacity="1" stroke="#806600" stroke-opacity="1" stroke-width="1" stroke-linecap="square" stroke-linejoin="miter" stroke-miterlimit="2" transform="matrix(1,0,0,1,0,0)"
>
</g>

<g fill="#806600" fill-opacity="1" stroke="#806600" stroke-opacity="1" stroke-width="1" stroke-linecap="square" stroke-linejoin="miter" stroke-miterlimit="2" transform="matrix(1,0,0,1,973,473)"
>
</g>

<g fill="#806600" fill-opacity="1" stroke="#806600" stroke-opacity="1" stroke-width="1" stroke-linecap="square" stroke-linejoin="miter" stroke-miterlimit="2" transform="matrix(1,0,0,1,973,473)"
>
</g>

<g fill="#806600" fill-opacity="1" stroke="#806600" stroke-opacity="1" stroke-width="1" stroke-linecap="square" stroke-linejoin="miter" stroke-miterlimit="2" transform="matrix(1,0,0,1,973,473)"
>
</g>

<g fill="#806600" fill-opacity="1" stroke="#806600" stroke-opacity="1" stroke-width="1" stroke-linecap="square" stroke-linejoin="miter" stroke-miterlimit="2" transform="matrix(1,0,0,1,0,0)"
>
</g>

<g fill="#806600" fill-opacity="1" stroke="#806600" stroke-opacity="1" stroke-width="1" stroke-linecap="square" stroke-linejoin="miter" stroke-miterlimit="2" transform="matrix(1,0,0,1,0,0)"
>
</g>

<g fill="#806600" fill-opacity="1" stroke="#806600" stroke-opacity="1" stroke-width="1" stroke-linecap="square" stroke-linejoin="miter" stroke-miterlimit="2" transform="matrix(1,0,0,1,0,0)"
>
</g>

<g fill="#000000" fill-opacity="1" stroke="#000000" stroke-opacity="1" stroke-width="1" stroke-linecap="square" stroke-linejoin="miter" stroke-miterlimit="2" transform="matrix(1,0,0,1,0,0)"
>
</g>

<g fill="#000000" fill-opacity="1" stroke="#000000" stroke-opacity="1" stroke-width="1" stroke-linecap="square" stroke-linejoin="miter" stroke-miterlimit="2" transform="matrix(1,0,0,1,0,0)"
>
</g>

<g fill="#000000" fill-opacity="1" stroke="#000000" stroke-opacity="1" stroke-width="1" stroke-linecap="square" stroke-linejoin="miter" stroke-miterlimit="2" transform="matrix(1,0,0,1,0,0)"
>
</g>
</g>
</svg>
